<svg width="54" height="24" viewBox="0 0 54 24" fill="none" xmlns="http://www.w3.org/2000/svg">
<path id="Arrow 1" d="M0.455453 10.9393C-0.130333 11.5251 -0.130333 12.4749 0.455453 13.0607L10.0014 22.6066C10.5872 23.1924 11.5369 23.1924 12.1227 22.6066C12.7085 22.0208 12.7085 21.0711 12.1227 20.4853L3.63743 12L12.1227 3.51472C12.7085 2.92893 12.7085 1.97919 12.1227 1.3934C11.5369 0.807611 10.5872 0.807611 10.0014 1.3934L0.455453 10.9393ZM52.5768 13.0607C53.1626 12.4749 53.1626 11.5251 52.5768 10.9393L43.0308 1.3934C42.445 0.807611 41.4953 0.807611 40.9095 1.3934C40.3237 1.97919 40.3237 2.92893 40.9095 3.51472L49.3948 12L40.9095 20.4853C40.3237 21.0711 40.3237 22.0208 40.9095 22.6066C41.4953 23.1924 42.445 23.1924 43.0308 22.6066L52.5768 13.0607ZM1.51611 13.5H51.5161V10.5H1.51611V13.5Z" fill="black"/>
</svg>
